<?xml version="1.0" encoding="utf-8"?>
<svg viewBox="150.7568 85.6287 172.4683 41.4123" xmlns="http://www.w3.org/2000/svg" xmlns:xlink="http://www.w3.org/1999/xlink" xmlns:bx="https://boxy-svg.com">
  <defs>
    <linearGradient id="gradient-2-0" gradientUnits="userSpaceOnUse" x1="837.808" y1="513.239" x2="837.808" y2="927.361" xlink:href="#gradient-2"/>
    <linearGradient id="gradient-2" bx:pinned="true">
      <stop offset="0" style="stop-color: rgb(36, 198, 220);"/>
      <stop offset="1" style="stop-color: rgb(60, 46, 220);"/>
    </linearGradient>
    <linearGradient id="gradient-2-1" gradientUnits="userSpaceOnUse" x1="964.198" y1="820" x2="964.198" y2="879.378" xlink:href="#gradient-2"/>
  </defs>
  <path d="M810 864 c-70 -67 -106 -83 -57 -24 27 32 27 54 -1 65 -10 4 -31 -9 -60 -37 -58 -57 -66 -73 -46 -93 15 -14 19 -14 39 -1 42 28 36 3 -11 -45 -48 -49 -55 -82 -19 -87 13 -2 41 19 85 63 58 58 90 79 90 57 0 -4 -34 -41 -75 -82 -52 -51 -75 -81 -73 -95 5 -34 38 -30 79 11 48 47 63 38 20 -12 -34 -38 -35 -51 -8 -68 14 -9 30 2 91 63 49 48 76 69 81 61 4 -6 2 -17 -4 -23 -16 -16 -13 -44 6 -51 18 -7 93 58 93 80 0 23 -27 36 -50 24 -39 -21 -34 -1 13 49 47 50 52 73 20 85 -10 4 -45 -22 -104 -81 -99 -96 -135 -107 -46 -14 61 64 60 62 51 85 -8 20 -38 21 -54 1 -7 -8 -16 -15 -21 -15 -20 0 -6 28 31 65 26 25 40 47 38 60 -6 39 -37 28 -108 -41z" style="stroke: rgb(186, 218, 85); fill: url(#gradient-2-0);" transform="matrix(0.10000000149011612, 0, 0, -0.10000000149011612, 87.53213500976561, 178.36485290527344)"/>
  <path d="M940 865 c-17 -21 -5 -45 24 -45 27 0 42 26 25 46 -15 18 -33 18 -49 -1z" style="stroke: rgb(186, 218, 85); fill: url(#gradient-2-1);" transform="matrix(0.10000000149011612, 0, 0, -0.10000000149011612, 87.53213500976561, 178.36485290527344)"/>
  <path d="M1140 720 c0 -91 3 -110 15 -110 11 0 15 12 15 50 l0 50 59 0 60 0 3 -47 c2 -26 9 -48 16 -51 9 -3 12 23 12 107 0 92 -3 111 -15 111 -11 0 -15 -12 -15 -45 l0 -45 -60 0 -60 0 0 45 c0 33 -4 45 -15 45 -12 0 -15 -19 -15 -110z" style="fill: rgb(36, 198, 220);" transform="matrix(0.10000000149011612, 0, 0, -0.10000000149011612, 87.53213500976561, 178.36485290527344)"/>
  <path d="M1620 720 c0 -91 3 -110 15 -110 11 0 15 11 15 37 l0 37 38 -37 c36 -35 62 -47 62 -28 0 5 -16 23 -37 41 l-36 32 31 25 c29 22 43 53 25 53 -4 0 -24 -17 -45 -37 l-38 -37 0 67 c0 53 -3 67 -15 67 -12 0 -15 -19 -15 -110z" style="fill: rgb(36, 198, 220);" transform="matrix(0.10000000149011612, 0, 0, -0.10000000149011612, 87.53213500976561, 178.36485290527344)"/>
  <path d="M1907 803 c-4 -3 -7 -14 -7 -24 0 -10 -8 -20 -17 -22 -16 -4 -16 -6 2 -12 17 -5 20 -13 17 -46 -5 -50 19 -89 53 -89 31 0 32 12 3 25 -18 8 -24 19 -26 57 -3 42 -1 47 20 50 13 2 21 8 18 13 -3 6 -13 9 -22 8 -13 -2 -18 4 -18 22 0 24 -10 32 -23 18z" style="fill: rgb(36, 198, 220);" transform="matrix(0.10000000149011612, 0, 0, -0.10000000149011612, 87.53213500976561, 178.36485290527344)"/>
  <path d="M1368 759 c-32 -18 -19 -29 27 -22 41 5 45 4 45 -16 0 -17 -6 -21 -32 -21 -54 0 -78 -31 -52 -68 12 -17 24 -21 64 -19 l50 2 0 61 c0 46 -4 65 -18 77 -21 19 -58 22 -84 6z m70 -95 c-5 -29 -35 -41 -54 -22 -22 21 -10 38 27 38 23 0 30 -4 27 -16z" style="fill: rgb(36, 198, 220);" transform="matrix(0.10000000149011612, 0, 0, -0.10000000149011612, 87.53213500976561, 178.36485290527344)"/>
  <path d="M1517 758 c-39 -31 -42 -107 -4 -133 35 -24 97 -17 97 11 0 17 -5 17 -31 4 -41 -23 -78 24 -59 75 10 25 13 27 50 21 43 -7 54 6 21 24 -26 14 -54 13 -74 -2z" style="fill: rgb(36, 198, 220);" transform="matrix(0.10000000149011612, 0, 0, -0.10000000149011612, 87.53213500976561, 178.36485290527344)"/>
  <path d="M1773 760 c-39 -16 -27 -31 18 -24 30 5 43 3 50 -7 15 -23 10 -29 -22 -29 -42 0 -69 -17 -69 -43 0 -30 18 -47 50 -47 14 0 31 5 38 12 9 9 12 9 12 0 0 -7 5 -12 10 -12 6 0 10 28 10 64 0 89 -28 113 -97 86z m77 -88 c0 -17 -39 -44 -55 -39 -15 7 -20 28 -8 40 9 10 63 9 63 -1z" style="fill: rgb(36, 198, 220);" transform="matrix(0.10000000149011612, 0, 0, -0.10000000149011612, 87.53213500976561, 178.36485290527344)"/>
  <path d="M2001 753 c-55 -45 -25 -143 43 -143 34 0 76 23 64 36 -5 4 -20 2 -34 -5 -22 -10 -31 -9 -50 4 -37 24 -29 34 29 37 45 3 52 6 55 25 4 28 -31 63 -62 63 -13 0 -33 -8 -45 -17z m79 -38 c0 -11 -12 -15 -40 -15 -45 0 -51 11 -18 34 24 17 58 6 58 -19z" style="fill: rgb(36, 198, 220);" transform="matrix(0.10000000149011612, 0, 0, -0.10000000149011612, 87.53213500976561, 178.36485290527344)"/>
  <path d="M2140 750 c-29 -29 -28 -103 2 -124 29 -20 82 -20 98 -1 18 21 8 27 -24 16 -31 -12 -53 -6 -67 20 -9 18 -5 19 46 19 52 0 55 1 55 25 0 14 -9 34 -20 45 -11 11 -31 20 -45 20 -14 0 -34 -9 -45 -20z m88 -38 c2 -8 -12 -12 -43 -12 -42 0 -45 2 -35 19 5 11 15 21 22 24 15 5 50 -14 56 -31z" style="fill: rgb(36, 198, 220);" transform="matrix(0.10000000149011612, 0, 0, -0.10000000149011612, 87.53213500976561, 178.36485290527344)"/>
  <path d="M2269 765 c0 -3 0 -38 -1 -77 0 -55 3 -73 13 -73 10 0 13 12 12 38 -3 51 12 87 36 87 11 0 23 5 26 10 10 16 -21 23 -44 10 -14 -7 -21 -7 -21 0 0 10 -19 15 -21 5z" style="fill: rgb(36, 198, 220);" transform="matrix(0.10000000149011612, 0, 0, -0.10000000149011612, 87.53213500976561, 178.36485290527344)"/>
</svg>