<?xml version="1.0" encoding="utf-8"?>
<svg viewBox="150.7568 85.6287 41.1123 41.4123" xmlns="http://www.w3.org/2000/svg" xmlns:xlink="http://www.w3.org/1999/xlink" xmlns:bx="https://boxy-svg.com">
  <defs>
    <linearGradient id="gradient-2-0" gradientUnits="userSpaceOnUse" x1="837.808" y1="513.239" x2="837.808" y2="927.361" xlink:href="#gradient-2"/>
    <linearGradient id="gradient-2" bx:pinned="true">
      <stop offset="0" style="stop-color: rgb(36, 198, 220);"/>
      <stop offset="1" style="stop-color: rgb(60, 46, 220);"/>
    </linearGradient>
    <linearGradient id="gradient-2-1" gradientUnits="userSpaceOnUse" x1="964.198" y1="820" x2="964.198" y2="879.378" xlink:href="#gradient-2"/>
  </defs>
  <path d="M810 864 c-70 -67 -106 -83 -57 -24 27 32 27 54 -1 65 -10 4 -31 -9 -60 -37 -58 -57 -66 -73 -46 -93 15 -14 19 -14 39 -1 42 28 36 3 -11 -45 -48 -49 -55 -82 -19 -87 13 -2 41 19 85 63 58 58 90 79 90 57 0 -4 -34 -41 -75 -82 -52 -51 -75 -81 -73 -95 5 -34 38 -30 79 11 48 47 63 38 20 -12 -34 -38 -35 -51 -8 -68 14 -9 30 2 91 63 49 48 76 69 81 61 4 -6 2 -17 -4 -23 -16 -16 -13 -44 6 -51 18 -7 93 58 93 80 0 23 -27 36 -50 24 -39 -21 -34 -1 13 49 47 50 52 73 20 85 -10 4 -45 -22 -104 -81 -99 -96 -135 -107 -46 -14 61 64 60 62 51 85 -8 20 -38 21 -54 1 -7 -8 -16 -15 -21 -15 -20 0 -6 28 31 65 26 25 40 47 38 60 -6 39 -37 28 -108 -41z" style="stroke: rgb(186, 218, 85); fill: url(#gradient-2-0);" transform="matrix(0.10000000149011612, 0, 0, -0.10000000149011612, 87.53213500976562, 178.36485290527344)"/>
  <path d="M940 865 c-17 -21 -5 -45 24 -45 27 0 42 26 25 46 -15 18 -33 18 -49 -1z" style="stroke: rgb(186, 218, 85); fill: url(#gradient-2-1);" transform="matrix(0.10000000149011612, 0, 0, -0.10000000149011612, 87.53213500976562, 178.36485290527344)"/>
</svg>